<?xml version="1.0" encoding="UTF-8" standalone="no"?>
<svg
   xmlns:dc="http://purl.org/dc/elements/1.1/"
   xmlns:cc="http://creativecommons.org/ns#"
   xmlns:rdf="http://www.w3.org/1999/02/22-rdf-syntax-ns#"
   xmlns:svg="http://www.w3.org/2000/svg"
   xmlns="http://www.w3.org/2000/svg"
   xmlns:sodipodi="http://sodipodi.sourceforge.net/DTD/sodipodi-0.dtd"
   xmlns:inkscape="http://www.inkscape.org/namespaces/inkscape"
   width="367.13998"
   height="367.13995"
   viewBox="0 0 367.13998 367.13995"
   version="1.1"
   id="svg2216"
   inkscape:version="1.0.1 (3bc2e813f5, 2020-09-07)"
   sodipodi:docname="traditional-circle-monogram-010101.svg">
  <defs
     id="defs2210" />
  <sodipodi:namedview
     id="base"
     pagecolor="#ffffff"
     bordercolor="#666666"
     borderopacity="1.0"
     inkscape:pageopacity="0.0"
     inkscape:pageshadow="2"
     inkscape:zoom="1.4"
     inkscape:cx="232.35472"
     inkscape:cy="176.35957"
     inkscape:document-units="px"
     inkscape:current-layer="layer1"
     showgrid="false"
     units="px"
     inkscape:window-width="1366"
     inkscape:window-height="705"
     inkscape:window-x="-8"
     inkscape:window-y="-8"
     inkscape:window-maximized="1"
     fit-margin-top="10"
     fit-margin-left="10"
     fit-margin-bottom="10"
     fit-margin-right="10"
     inkscape:showpageshadow="false"
     scale-x="1"
     inkscape:document-rotation="0" />
  <metadata
     id="metadata2213">
    <rdf:RDF>
      <cc:Work
         rdf:about="">
        <dc:format>image/svg+xml</dc:format>
        <dc:type
           rdf:resource="http://purl.org/dc/dcmitype/StillImage" />
        <dc:title />
      </cc:Work>
    </rdf:RDF>
  </metadata>
  <g
     inkscape:label="Layer 1"
     inkscape:groupmode="layer"
     id="layer1"
     transform="translate(33.179823,32.465521)">

<g
       id="g832">
      <path
         d="m 98.617378,184 q -12.356638,0 -23.784211,-3.46262 -11.427571,-3.46261 -21.833165,-10.6542 v -27.61216 h 14.214784 l 3.065934,20.33178 q 6.038962,3.5514 13.0999,5.50468 7.060938,1.95326 15.236758,1.95326 9.290712,0 15.701302,-2.66355 6.5035,-2.75234 9.94106,-7.54672 3.43756,-4.7944 3.43756,-11.18692 0,-5.9486 -2.97302,-10.47664 -2.97303,-4.52803 -9.84815,-7.90187 -6.78222,-3.46261 -18.58143,-6.03738 -13.936059,-3.10748 -23.598395,-8.25701 -9.56943,-5.23832 -14.586413,-12.60747 -4.924075,-7.457948 -4.924075,-17.046733 0,-10.121495 5.574424,-18.112149 Q 64.427573,60.233644 74.461539,55.616822 84.495506,51 97.874124,51 q 14.214786,0 25.084916,4.172897 10.96304,4.084112 18.02397,9.943926 v 25.836446 h -14.21479 l -3.06593,-18.467288 q -4.18081,-3.196262 -10.40559,-5.327103 -6.22478,-2.13084 -15.422576,-2.13084 -7.804193,0 -13.750247,2.663551 -5.946054,2.574765 -9.29071,7.280373 -3.344654,4.705608 -3.344654,11.09813 0,5.593458 2.973026,9.766355 3.065934,4.172893 9.848152,7.369163 6.87513,3.10747 18.302689,5.85981 21.36864,5.06075 32.33167,15.00467 Q 146,133.92523 146,148.48598 q 0,10.38784 -5.85314,18.46729 -5.85315,7.99065 -16.53747,12.51868 Q 113.01798,184 98.617378,184 Z"
         style="font-style:normal;font-variant:normal;font-weight:normal;font-stretch:normal;font-size:140.931px;line-height:1.25;font-family:'Roboto Slab';-inkscape-font-specification:'Roboto Slab';fill:#0d47a1;fill-opacity:1;stroke-width:0.999996"
         id="path848" />
    </g>



<g
       aria-label="L"
       transform="matrix(1.2883412,0,0,1.3274364,64.512359,65.00073)"
       id="g853"
       style="font-size:140.931px;line-height:1.25;font-family:Arial;-inkscape-font-specification:'Arial, Normal';fill:#0d47a1;fill-opacity:1;stroke-width:0.764673">
      <path
         d="m 69.459582,138.6125 v -8.67056 l 11.216676,-1.92679 V 49.085535 L 69.459582,47.158744 V 38.41937 h 11.216676 13.556351 11.216681 v 8.739374 L 94.232609,49.085535 V 128.22159 H 129.6718 l 1.58272,-15.82721 h 10.39091 v 26.21812 z"
         style="font-style:normal;font-variant:normal;font-weight:normal;font-stretch:normal;font-family:'Roboto Slab';-inkscape-font-specification:'Roboto Slab';fill:#0d47a1;fill-opacity:1;stroke-width:0.764673"
         id="path851" />
    </g>

    


    <path
       style="fill:#0d47a1;fill-opacity:1;fill-rule:evenodd;stroke-width:1.06113"
       d="M 150.39016,-22.465521 A 173.57001,173.57001 0 0 0 -23.179823,151.10445 173.57001,173.57001 0 0 0 150.39016,324.67444 a 173.57001,173.57001 0 0 0 173.57,-173.56999 173.57001,173.57001 0 0 0 -173.57,-173.569971 z m 0,10.84808 A 162.72188,162.72188 0 0 1 313.11203,151.10445 162.72188,162.72188 0 0 1 150.39016,313.82632 162.72188,162.72188 0 0 1 -12.331693,151.10445 162.72188,162.72188 0 0 1 150.39016,-11.617441 Z"
       id="path12"
       inkscape:connector-curvature="0" />
  </g>
</svg>
